<svg width="24" height="24" viewBox="0 0 24 24" fill="none" xmlns="http://www.w3.org/2000/svg">
<path d="M10.07 20.503C10.0699 20.3565 10.0376 20.2118 9.97541 20.0791C9.91321 19.9465 9.82263 19.8291 9.71006 19.7353C9.59749 19.6416 9.46569 19.5737 9.32398 19.5365C9.18227 19.4992 9.03412 19.4936 8.89 19.52C7.58 19.76 5.927 19.796 5.488 18.562C5.10476 17.606 4.47 16.7715 3.651 16.147C3.59237 16.115 3.53651 16.0782 3.484 16.037C3.41228 15.8481 3.28504 15.6854 3.11903 15.5703C2.95302 15.4551 2.75603 15.393 2.554 15.392H2.549C2.28465 15.392 2.03105 15.4967 1.84366 15.6831C1.65626 15.8696 1.55032 16.1226 1.549 16.387C1.545 17.202 2.359 17.725 2.69 17.901C3.07998 18.2929 3.39336 18.7541 3.614 19.261C3.979 20.284 5.037 21.837 8.08 21.637L8.083 21.735L8.087 22.003C8.087 22.2682 8.19236 22.5226 8.37989 22.7101C8.56743 22.8976 8.82178 23.003 9.087 23.003C9.35222 23.003 9.60657 22.8976 9.79411 22.7101C9.98164 22.5226 10.087 22.2682 10.087 22.003L10.082 21.685C10.077 21.495 10.07 21.221 10.07 20.503V20.503ZM20.737 5.377C20.7726 5.23825 20.8026 5.09814 20.827 4.957C20.9888 3.84261 20.8479 2.70521 20.419 1.664C20.3649 1.52835 20.2819 1.40616 20.1757 1.30597C20.0694 1.20578 19.9426 1.13002 19.804 1.084C19.448 0.964 18.134 0.727 15.62 2.334C13.5305 1.84232 11.3555 1.84232 9.266 2.334C6.762 0.75 5.455 0.966 5.102 1.079C4.95991 1.1231 4.8295 1.19843 4.72031 1.29949C4.61113 1.40054 4.52594 1.52475 4.471 1.663C4.03295 2.72428 3.89326 3.88509 4.067 5.02C4.092 5.147 4.118 5.266 4.146 5.374C3.31721 6.47763 2.87572 7.82389 2.89 9.204C2.88751 9.51156 2.90186 9.81902 2.933 10.125C3.267 14.728 6.267 16.109 8.357 16.584C8.31163 16.7155 8.27225 16.8489 8.239 16.984C8.17548 17.2415 8.21686 17.5137 8.35405 17.7407C8.49123 17.9678 8.71297 18.131 8.9705 18.1945C9.22803 18.258 9.50024 18.2166 9.72725 18.0795C9.95426 17.9423 10.1175 17.7205 10.181 17.463C10.2447 17.1297 10.4078 16.8236 10.649 16.585C10.7945 16.4573 10.8998 16.2901 10.9521 16.1036C11.0044 15.9172 11.0014 15.7197 10.9436 15.5349C10.8858 15.3501 10.7756 15.1861 10.6264 15.0628C10.4772 14.9394 10.2953 14.862 10.103 14.84C6.649 14.445 5.149 13.038 4.923 9.941C4.89825 9.69581 4.88723 9.44942 4.89 9.203C4.87412 8.21955 5.19919 7.26093 5.81 6.49C5.87111 6.40979 5.93619 6.3327 6.005 6.259C6.12753 6.12194 6.2099 5.95375 6.24307 5.77292C6.27624 5.5921 6.25891 5.40562 6.193 5.234C6.12567 5.05374 6.07381 4.86807 6.038 4.679C5.95657 4.14044 5.98343 3.59105 6.117 3.063C6.98615 3.30858 7.80414 3.70826 8.532 4.243C8.65228 4.3231 8.78837 4.37643 8.93105 4.39937C9.07373 4.42232 9.21967 4.41435 9.359 4.376C11.3802 3.82746 13.511 3.82781 15.532 4.377C15.6721 4.41534 15.8189 4.42286 15.9621 4.39904C16.1054 4.37522 16.2418 4.32062 16.362 4.239C17.0867 3.70221 17.9015 3.29922 18.768 3.049C18.9006 3.56414 18.9302 4.1004 18.855 4.627C18.8187 4.83439 18.7621 5.03771 18.686 5.234C18.6201 5.40562 18.6028 5.5921 18.6359 5.77292C18.6691 5.95375 18.7515 6.12194 18.874 6.259C18.952 6.346 19.029 6.439 19.098 6.527C19.7044 7.28497 20.0238 8.23262 20 9.203C20.0017 9.4625 19.989 9.7219 19.962 9.98C19.742 13.036 18.237 14.444 14.767 14.84C14.5744 14.8618 14.3924 14.9392 14.2429 15.0626C14.0935 15.186 13.9832 15.3502 13.9253 15.5352C13.8675 15.7201 13.8646 15.9179 13.9171 16.1045C13.9696 16.291 14.0752 16.4583 14.221 16.586C14.4695 16.831 14.6329 17.1493 14.687 17.494C14.7549 17.7619 14.7862 18.0377 14.78 18.314V20.647C14.77 21.295 14.77 21.78 14.77 22.003C14.77 22.2682 14.8754 22.5226 15.0629 22.7101C15.2504 22.8976 15.5048 23.003 15.77 23.003C16.0352 23.003 16.2896 22.8976 16.4771 22.7101C16.6646 22.5226 16.77 22.2682 16.77 22.003C16.77 21.786 16.77 21.311 16.78 20.663V18.313C16.7879 17.871 16.7358 17.43 16.625 17.002C16.5934 16.8615 16.5547 16.7226 16.509 16.586C18.0302 16.3331 19.4123 15.5487 20.4094 14.3724C21.4065 13.196 21.9538 11.7041 21.954 10.162C21.987 9.84342 22.0023 9.52327 22 9.203C22.0221 7.82179 21.5771 6.4736 20.737 5.377V5.377Z" fill="#F8F8F8"/>
</svg>
