<svg width="34" height="18" viewBox="0 0 34 18" fill="none" xmlns="http://www.w3.org/2000/svg">
<g clip-path="url(#clip0_3_7)">
<path d="M17.5535 5.96201L19.1711 5.81296C19.208 6.18997 19.2757 6.47053 19.3864 6.67219C19.5648 6.98782 19.8108 7.14564 20.1368 7.14564C20.3766 7.14564 20.5673 7.06673 20.6965 6.90015C20.8195 6.76863 20.8933 6.55821 20.8933 6.33902C20.8933 6.12859 20.8256 5.92694 20.7088 5.79542C20.5857 5.6376 20.2967 5.47979 19.8415 5.3395C19.0973 5.10278 18.5622 4.78714 18.2486 4.38383C17.9349 4.00682 17.7565 3.45446 17.7688 2.86702C17.7688 2.46371 17.8549 2.0604 18.0148 1.72723C18.1993 1.35022 18.4515 1.05212 18.7529 0.885534C19.0789 0.683878 19.534 0.578666 20.106 0.578666C20.8072 0.578666 21.3423 0.762787 21.7113 1.1398C22.0803 1.50804 22.3017 2.10424 22.3694 2.91963L20.7703 3.05114C20.7272 2.70044 20.6411 2.44618 20.4996 2.27959C20.3582 2.11301 20.1737 2.0341 19.9338 2.0341C19.737 2.0341 19.5894 2.09547 19.491 2.20945C19.3987 2.31466 19.3372 2.47248 19.3433 2.64783C19.3433 2.77935 19.3925 2.90209 19.4664 2.981C19.5463 3.08622 19.737 3.18266 20.0384 3.27034C20.7826 3.4983 21.3115 3.72625 21.6375 3.96298C21.9635 4.19971 22.1972 4.48904 22.3386 4.83098C22.4863 5.18169 22.5601 5.585 22.5539 5.99708C22.5539 6.48807 22.4555 6.97906 22.2587 7.39114C22.0557 7.82075 21.7728 8.15392 21.4407 8.35558C21.0901 8.57477 20.6473 8.68875 20.1183 8.68875C19.1834 8.68875 18.5376 8.43449 18.1747 7.9172C17.8119 7.3999 17.5966 6.7511 17.5535 5.96201ZM0.387482 8.55723V0.718948H3.22287C3.74566 0.718948 4.15159 0.780322 4.42836 0.911837C4.69899 1.03458 4.93886 1.28885 5.09877 1.63078C5.27713 2.00779 5.36324 2.44618 5.35709 2.90209C5.37554 3.67365 5.09877 4.41013 4.62518 4.79591C4.44067 4.94496 4.2377 5.05017 4.02858 5.10278C4.18234 5.16415 4.33611 5.26936 4.47142 5.39211C4.57598 5.51486 4.66208 5.65514 4.74204 5.80419C4.8343 5.95324 4.91425 6.11983 4.98191 6.29518L5.80608 8.566H3.87482L2.96454 6.1549C2.84768 5.84803 2.74928 5.64637 2.65702 5.54993C2.53401 5.42718 2.3864 5.36581 2.23878 5.36581H2.09117V8.54847H0.387482V8.55723ZM2.09117 3.89284H2.81078C2.96454 3.87531 3.11216 3.84023 3.25977 3.78763C3.37048 3.76133 3.46889 3.67365 3.53654 3.54213C3.70261 3.2265 3.678 2.77935 3.47504 2.50755C3.36433 2.37604 3.14906 2.30589 2.84153 2.30589H2.09117V3.89284ZM0 15.2733L1.61758 15.1242C1.65449 15.5012 1.72214 15.7818 1.83285 15.9834C2.00507 16.2991 2.25724 16.4657 2.58321 16.4657C2.82308 16.4657 3.01375 16.3868 3.14291 16.2202C3.26592 16.0799 3.33973 15.8782 3.33973 15.659C3.33973 15.4486 3.27207 15.247 3.15521 15.1154C3.0322 14.9576 2.74313 14.7998 2.28184 14.6595C1.53763 14.4228 1.00253 14.1072 0.688857 13.7038C0.375181 13.3268 0.196816 12.7745 0.209117 12.187C0.209117 11.7837 0.295224 11.3804 0.455138 11.0472C0.639653 10.6702 0.891823 10.3721 1.1932 10.2056C1.51918 10.0039 1.97431 9.89869 2.54631 9.89869C3.24747 9.89869 3.78256 10.0828 4.15159 10.4598C4.52062 10.8368 4.73589 11.4243 4.80355 12.2396L3.20441 12.3712C3.16136 12.0205 3.07525 11.7662 2.93379 11.5996C2.79848 11.433 2.60781 11.3541 2.36795 11.3629C2.17113 11.3629 2.02352 11.4243 1.92511 11.547C1.8267 11.6522 1.77135 11.81 1.7775 11.9854C1.7775 12.1169 1.8267 12.2396 1.90051 12.3186C1.98046 12.4238 2.17113 12.5202 2.4725 12.6079C3.21672 12.8358 3.74566 13.0638 4.07164 13.3005C4.39761 13.5373 4.63133 13.8266 4.77279 14.1685C4.92041 14.5192 4.99421 14.9226 4.99421 15.3259C4.99421 15.8169 4.88965 16.2991 4.69899 16.7112C4.49602 17.1408 4.2131 17.4739 3.88097 17.6756C3.53039 17.8948 3.08755 18.0088 2.55861 18.0088C1.62373 18.0088 0.977931 17.7545 0.615051 17.2372C0.252171 16.7112 0.0492041 16.0623 0 15.2733H0Z" fill="white"/>
<path d="M8.18017 14.6595L9.6686 15.2996C9.58864 15.8344 9.42258 16.3429 9.19501 16.7901C8.98589 17.1846 8.70912 17.4915 8.39544 17.6931C8.07562 17.8948 7.66968 18 7.17764 18C6.58104 18 6.089 17.8773 5.71382 17.6318C5.33249 17.3863 5.00651 16.9479 4.72974 16.3254C4.45297 15.7029 4.31766 14.905 4.31766 13.9318C4.31766 12.6342 4.55753 11.6347 5.04342 10.942C5.52931 10.2494 6.21201 9.89869 7.09768 9.89869C7.79269 9.89869 8.33394 10.1003 8.73372 10.4949C9.12735 10.8982 9.42258 11.5119 9.61939 12.3361L8.11867 12.8095C8.08177 12.6254 8.02641 12.4413 7.95261 12.2835C7.86035 12.0994 7.74349 11.9591 7.60203 11.8539C7.46056 11.7487 7.30065 11.7048 7.14074 11.7048C6.75326 11.7048 6.45803 11.924 6.25507 12.3712C6.1013 12.6956 6.02135 13.2129 6.02135 13.9143C6.02135 14.7823 6.1136 15.3785 6.29812 15.7029C6.48263 16.0273 6.74096 16.1851 7.07923 16.1851C7.40521 16.1851 7.65123 16.0536 7.81729 15.7993C7.98336 15.5275 8.10637 15.1505 8.18017 14.6595ZM11.6552 10.0302H13.3528V12.7745H15.2102V10.0302H16.92V17.8685H15.2102V14.6946H13.3528V17.8685H11.6552V10.0302V10.0302Z" fill="white"/>
<path d="M16.6863 13.9493C16.6863 12.6693 16.9385 11.6698 17.4367 10.9596C17.9349 10.2494 18.636 9.88992 19.5279 9.88992C20.4443 9.88992 21.1454 10.2406 21.6436 10.942C22.1418 11.6434 22.3878 12.6254 22.3878 13.888C22.3878 14.8086 22.2771 15.5538 22.0619 16.1413C21.8528 16.7199 21.5268 17.1934 21.127 17.509C20.7149 17.8334 20.2044 18 19.5955 18C18.9743 18 18.4638 17.8597 18.0579 17.5792C17.6397 17.2811 17.2952 16.8164 17.0677 16.2465C16.8155 15.6327 16.6863 14.8699 16.6863 13.9493ZM18.3839 13.9581C18.3839 14.7472 18.4884 15.3171 18.6914 15.6678C18.8944 16.0097 19.1773 16.1851 19.534 16.1851C19.8969 16.1851 20.1798 16.0185 20.3828 15.6766C20.5857 15.3346 20.6842 14.7297 20.6842 13.8529C20.6842 13.1164 20.5796 12.5728 20.3705 12.2396C20.1614 11.8977 19.8784 11.7311 19.5217 11.7311C19.208 11.7136 18.9067 11.9065 18.6975 12.2484C18.4884 12.5904 18.3839 13.1603 18.3839 13.9581V13.9581ZM24.1284 13.9493C24.1284 12.6693 24.3806 11.6698 24.8788 10.9596C25.377 10.2494 26.0781 9.88992 26.97 9.88992C27.8864 9.88992 28.5937 10.2406 29.0857 10.942C29.5778 11.6434 29.83 12.6254 29.83 13.888C29.83 14.8086 29.7192 15.5538 29.504 16.1413C29.2949 16.7199 28.9689 17.1934 28.5691 17.509C28.157 17.8334 27.6465 18 27.0376 18C26.4164 18 25.9059 17.8597 25.5 17.5792C25.0818 17.2811 24.7373 16.8164 24.5098 16.2465C24.2576 15.6327 24.1284 14.8699 24.1284 13.9493V13.9493ZM25.826 13.9581C25.826 14.7472 25.9305 15.3171 26.1335 15.6678C26.3365 16.0097 26.6194 16.1851 26.9761 16.1851C27.339 16.1851 27.6219 16.0185 27.8249 15.6766C28.0279 15.3346 28.1263 14.7297 28.1263 13.8529C28.1263 13.1164 28.0217 12.5728 27.8126 12.2396C27.6035 11.8977 27.3205 11.7311 26.9638 11.7311C26.6501 11.7136 26.3426 11.9065 26.1397 12.2484C25.9305 12.5904 25.826 13.1603 25.826 13.9581V13.9581Z" fill="white"/>
<path d="M29.6516 10.0302H31.3491V15.9396H34V17.8685H29.6454V10.0302H29.6516Z" fill="white"/>
</g>
<defs>
<clipPath id="clip0_3_7">
<rect width="34" height="18" fill="white"/>
</clipPath>
</defs>
</svg>
